<svg width="180" height="180" viewBox="0 0 180 180" fill="none" xmlns="http://www.w3.org/2000/svg">
<path d="M152.717 80.384c-.96-3.85-4.883-8.09-8.6-8.673-6.997-1.095-16.088-.738-23.234-.72l-39.21.093c-11.376.02-30.61-.79-41.1.153-6.453 1.766-10.547 5.334-10.54 12.63.008 8.717 2.39 17.42 3.354 26.066 1.17 8.424 2.058 17.695 3.87 25.953.48 2.18 2.608 5.848 5.14 6.878 3.03 1.073 5.87 1.092 8.87 1.23 9.558.432 82.67 1.523 86.62-.53 2.49-.978 3.21-1.804 4.313-3.025 2.698-2.924 3.506-6.992 4.563-12.5 2.7-15.208 6.955-42.447 5.954-47.554zM61.08 127.61c0 2.048-1.66 3.708-3.707 3.708h-4.14c-2.047 0-3.707-1.66-3.707-3.708v-4.14c0-2.047 1.66-3.707 3.708-3.707h4.14c2.047 0 3.707 1.66 3.707 3.708v4.14zm0-17.91c0 2.05-1.66 3.71-3.707 3.71h-4.14c-2.047 0-3.707-1.66-3.707-3.71v-4.138c0-2.048 1.66-3.71 3.708-3.71h4.14c2.047 0 3.707 1.662 3.707 3.71v4.14zm0-17.63c0 2.048-1.66 3.708-3.707 3.708h-4.14c-2.047 0-3.707-1.66-3.707-3.71v-4.137c0-2.048 1.66-3.708 3.708-3.708h4.14c2.047 0 3.707 1.66 3.707 3.71v4.137zm17.872 35.54c0 2.048-1.66 3.708-3.71 3.708h-4.137c-2.048 0-3.71-1.66-3.71-3.708v-4.14c0-2.047 1.662-3.707 3.71-3.707h4.138c2.05 0 3.71 1.66 3.71 3.708v4.14zm0-17.91c0 2.05-1.66 3.71-3.71 3.71h-4.137c-2.048 0-3.71-1.66-3.71-3.71v-4.138c0-2.048 1.662-3.71 3.71-3.71h4.138c2.05 0 3.71 1.662 3.71 3.71v4.14zm0-17.63c0 2.048-1.66 3.708-3.71 3.708h-4.137c-2.048 0-3.71-1.66-3.71-3.71v-4.137c0-2.048 1.662-3.708 3.71-3.708h4.138c2.05 0 3.71 1.66 3.71 3.71v4.137zm19.032 35.54c0 2.048-1.66 3.708-3.708 3.708h-4.14c-2.047 0-3.707-1.66-3.707-3.708v-4.14c0-2.047 1.66-3.707 3.707-3.707h4.14c2.047 0 3.707 1.66 3.707 3.708v4.14zm0-17.91c0 2.05-1.66 3.71-3.708 3.71h-4.14c-2.047 0-3.707-1.66-3.707-3.71v-4.138c0-2.048 1.66-3.71 3.707-3.71h4.14c2.047 0 3.707 1.662 3.707 3.71v4.14zm0-17.63c0 2.048-1.66 3.708-3.708 3.708h-4.14c-2.047 0-3.707-1.66-3.707-3.71v-4.137c0-2.048 1.66-3.708 3.707-3.708h4.14c2.047 0 3.707 1.66 3.707 3.71v4.137zM116 127.61c0 2.048-1.66 3.708-3.708 3.708h-4.14c-2.047 0-3.708-1.66-3.708-3.708v-4.14c0-2.047 1.66-3.707 3.71-3.707h4.138c2.048 0 3.708 1.66 3.708 3.708v4.14zm0-17.91c0 2.05-1.66 3.71-3.708 3.71h-4.14c-2.047 0-3.708-1.66-3.708-3.71v-4.138c0-2.048 1.66-3.71 3.71-3.71h4.138c2.048 0 3.708 1.662 3.708 3.71v4.14zm0-17.63c0 2.048-1.66 3.708-3.708 3.708h-4.14c-2.047 0-3.708-1.66-3.708-3.71v-4.137c0-2.048 1.66-3.708 3.71-3.708h4.138c2.048 0 3.708 1.66 3.708 3.71v4.137zm19.032 35.54c0 2.048-1.66 3.708-3.708 3.708h-4.14c-2.047 0-3.707-1.66-3.707-3.708v-4.14c0-2.047 1.66-3.707 3.708-3.707h4.14c2.047 0 3.707 1.66 3.707 3.708v4.14zm0-17.91c0 2.05-1.66 3.71-3.708 3.71h-4.14c-2.047 0-3.707-1.66-3.707-3.71v-4.138c0-2.048 1.66-3.71 3.708-3.71h4.14c2.047 0 3.707 1.662 3.707 3.71v4.14zm0-17.63c0 2.048-1.66 3.708-3.708 3.708h-4.14c-2.047 0-3.707-1.66-3.707-3.71v-4.137c0-2.048 1.66-3.708 3.708-3.708h4.14c2.047 0 3.707 1.66 3.707 3.71v4.137z" fill="#fff"/>
<path d="M90 5.243c46.735 0 84.757 38.022 84.757 84.757 0 46.735-38.022 84.757-84.757 84.757-46.735 0-84.757-38.022-84.757-84.757C5.243 43.265 43.265 5.243 90 5.243zM90 0C40.294 0 0 40.294 0 90s40.294 90 90 90 90-40.294 90-90S139.706 0 90 0z" fill="#fff"/>
</svg>