<svg width="180" height="180" viewBox="0 0 180 180" fill="none" xmlns="http://www.w3.org/2000/svg">
<path d="M30.244 52.207c6.014 2.763 26.82 11.125 32.152 12.538V51.102c26.8 0 56.51.576 83.09.576-.075 19.047-.28 36.933-.28 57.066-7.028-.01-23.055 0-29.213 0-2.09 2.16-2.28 2.35-4.094 4.794 4.44 6.457 10.777 12.274 15.418 18.58 1.225 2.162 2.345 3.47.184 4.87-6.622 1.956-16.95-11.9-23.395-17.2-6.045 5.008-11.17 11.167-17.56 15.644-2.445 1.715-4.743 2.255-6.222-.86.503-6.18 12.373-15.065 16.717-21.105l-2.993-4.723c-11.76-.215-20.865.347-31.654 0V97.068c-4.142.907-9.568 3.54-13.618 5.218-6.152 2.565-12.37 4.974-18.643 7.225.02-12.474.11-50.317.11-57.303z" fill="#fff"/>
<path d="M90 5.243c46.735 0 84.757 38.022 84.757 84.757 0 46.735-38.022 84.757-84.757 84.757-46.735 0-84.757-38.022-84.757-84.757C5.243 43.265 43.265 5.243 90 5.243zM90 0C40.294 0 0 40.294 0 90s40.294 90 90 90 90-40.294 90-90S139.706 0 90 0z" fill="#fff"/>
</svg>