<svg xmlns="http://www.w3.org/2000/svg" viewBox="0 0 100 100">

  <circle cx="50" cy="50" r="45" fill="none" stroke="#ffffff" stroke-width="2.5" />

  <g fill="#ffffff">
      <circle cx="50" cy="50" r="18"/>
      <rect x="46" y="26" width="8" height="10" transform="rotate(0 50 50)"/>
      <rect x="46" y="26" width="8" height="10" transform="rotate(45 50 50)"/>
      <rect x="46" y="26" width="8" height="10" transform="rotate(90 50 50)"/>
      <rect x="46" y="26" width="8" height="10" transform="rotate(135 50 50)"/>
      <rect x="46" y="26" width="8" height="10" transform="rotate(180 50 50)"/>
      <rect x="46" y="26" width="8" height="10" transform="rotate(225 50 50)"/>
      <rect x="46" y="26" width="8" height="10" transform="rotate(270 50 50)"/>
      <rect x="46" y="26" width="8" height="10" transform="rotate(315 50 50)"/>
      <circle cx="50" cy="50" r="6" fill="none" stroke="#ffffff" stroke-width="2.5"/>
  </g>

</svg>