<svg xmlns="http://www.w3.org/2000/svg" width="180" height="180" fill="none" viewBox="0 0 180 180">
<path fill="#fff" d="M157.486 83.922c-4.036.033-12.021-.362-16.227-.848-.999-3.95-2.811-9.163-4.866-13.435-7.087-14.734-18.804-24.032-34.294-28.463q-2.236-.63-4.499-1.166c.685-5.796.983-10.637 1.819-16.052-5.452-.022-10.707.115-16.346 0 1.166 5.86 1.395 9.12 2.14 14.95-26.574 7.485-36.978 16.742-45.46 42.94-7.602-.443-9.812-.706-16.932-1.446.037 4.748.19 9.58.001 14.284 5.89-.767 10.425-.813 16.596-1.278 3.269 15.554 10.295 27.641 23.73 36.47 7.41 4.868 11.781 5.302 19.844 7.767-.624 6.071-1.247 11.319-2.077 16.85 5.389.044 9.039.386 14.42 0 .117-1.701-.354-12.296-.163-16.043 24.729-6.101 38.088-17.492 45.575-42.44q8.36.945 16.739 1.706c0-5.35.265-8.555 0-13.797m-23.783 13.194c-3.816 18.191-19.862 34.33-38.772 33.624a1.045 1.045 0 0 1-.993-.999 938 938 0 0 1-.669-19.655c-.087-3.82-.04-9.966-.587-13.764a1 1 0 0 0-.659-.81c-1.287-.444-3.383-.465-4.647-.013-.34.122-.579.42-.643.776-1.58 8.697-2.178 24.285-3.616 34.404l-.398.406c-6.008.124-16.262-5.4-20.869-9.213-8.833-7.315-13.464-16.093-14.927-27.149-.08-.599.38-1.143.983-1.17 6.57-.303 30.78-.61 34.904-1.703.333-.088.586-.348.699-.674.478-1.383.376-1.815.173-3.576-.13-.527-.435-.768-1.008-1.13-9.693-2.195-25.306-1.94-34.996-3.383a1.034 1.034 0 0 1-.855-1.24c3.68-16.786 17.564-34.374 37.265-35.144.592-.023 1.334.168 1.334.168.665 6.312.607 30.03 2.203 35.762.112.403.471.687.887.733 1.387.154 1.977.229 3.302-.068.378-.085.683-.365.785-.74 1.57-5.78 3.27-27.393 4.078-35.124a1.04 1.04 0 0 1 1.22-.912c11.148 2.031 19.236 6.252 26.807 15.434 3.31 4.016 8.921 14.758 8.888 20.462a1.03 1.03 0 0 1-.867 1.016c-10.455 1.676-30.495 1.607-36.282 3.388a.94.94 0 0 0-.582.485c-.49 1.042-.395 2.322-.344 3.568.015.362.21.7.532.865 5.259 2.69 31.19 2.207 37.311 4.104.602.139.423.888.343 1.272"/>
<path fill="#fff" d="M90 5.243c46.735 0 84.757 38.022 84.757 84.757S136.735 174.757 90 174.757 5.243 136.735 5.243 90 43.265 5.243 90 5.243M90 0C40.294 0 0 40.294 0 90s40.294 90 90 90 90-40.294 90-90S139.706 0 90 0"/>
</svg>