<svg width="180" height="180" viewBox="0 0 180 180" fill="none" xmlns="http://www.w3.org/2000/svg">
<path d="M155.682 31.545c-3.006 1.738-16.654 5.808-18.21 4.298 0 0-.33-.214-.356-.378-.03-.185.247-.647.247-.647 2.298-3.75 9.56-8.042 13.94-7.783 1.106.946 3.457 3.465 4.38 4.51zM111.352 116.232c2.337.907 12.1 8.543 14.915 10.923-11.544 12.374-18.29 18.525-31.07 33.505-1.35 1.847-2.6 2.928-4.24 4.493-1.313-4.007-6.348-22.645-5.487-25.52 1.8-6.01 20.32-19.724 25.882-23.4zM112.906 85.722c2.77-1.256 6.726 8.143 8.302 11.01-3.388 2.724-11.924 7.278-16.048 9.972-7.097 5.04-10.673 7.897-17.018 13.703-1.472 1.365-3.248 2.77-4.808 4.066 2.037-13.266 4.066-23.427 6.064-25.13 5.61-4.777 11.77-7.383 23.508-13.62zM124.86 102.533c7.296 3.84 11.244 7.396 17.462 11.245 1.214 2.833 8.74 16.567 8.48 19.61-.708.893-1.806-.068-3.5-.917-8.988-5.306-23.542-15.6-31.213-22.33l8.77-7.607zM27.355 74.804c.092.007.188-.002.278.022 3.06.84 12.335 19.733 14.308 23.555-1.23 4.286-2.436 8.636-4.955 12.362l-.967.07c-4.586-6.8-8.516-14.807-12.522-21.996-4.435-7.96-6.085-11.68 3.86-14.012zM122.503 60.503c1.536-.426 1.588.393 2 .758 1.73 2.046 2.22 4.287 3.075 6.863-5.837 3.864-11.89 6.716-17.838 10.003-6.234 3.446-9.964 6.363-15.44 10.718-1.22.978-2.237 1.895-3.04 1.824 0 0-1.122-.6.143-3.004 5.136-9.837 8.13-15.778 11.467-18.125 4.45-3.133 9.86-5.352 19.633-9.037zM46.743 51.525c.964-.29 1.178.387 1.178.387 1.29 1.49 7.535 16.27 9.424 20.48.137.303.108.654-.076.933-2.05 3.11-4.47 5.94-6.956 8.704-.448.497-1.26.406-1.573-.186-2.7-5.09-7.62-19.058-9.614-25.58-.32-1.045.232-2.154 1.252-2.546 2.152-.83 3.854-1.442 6.365-2.193zM127.027 76.845c2.76 1.33 9.805 7.913 12.803 11.666.145 3.92 1.036 11.92 1.2 14.315 0 0-.105.47-.808.218-.687-.246-2.332-1.755-2.332-1.755-3.652-3.105-15.423-15.795-18.016-19.81 1.842-1.422 5.098-3.414 7.153-4.633zM69.644 38.085c2.6 3.174 5.75 9.65 7.46 13.187.288.596.233 1.31-.16 1.842-2.188 2.962-4.556 5.154-7.232 7.803l-.64.537c-.983.82-2.484.387-2.87-.834-1.352-4.285-3.102-13.898-3.242-16.473-.156-2.856 1.723-4.053 4.07-6.24.757-.708 1.957-.624 2.614.178zM135.857 40.008c1.003 2.922 1.507 5.006 2.072 7.003-3.807 3.227-22.617 11.036-27.787 12.938 0 0-.293.147-.507-.11-.095-.113.142-.576.142-.576 3.136-7.787 17.896-17.02 26.08-19.254zM83.334 25.325c-3.313 1.153-13.9 4.647-16.127 5.903 0 0-.67.453.224.51 4.504.28 9.56-.074 14.934-.395.06 1.694 1.705 13.03 2.015 16.282 3.686-2.24 6.86-4.025 9.928-6.238-2.245-6.242-9.78-15.065-10.974-16.062zM56.74 34.11c2.31-.46 4.235 3.45 3.205 4.743-4.004 3.876-17.752 7.938-25.022 10.24-1.56.533-3.257 1.266-3.624.704-.21-.32.057-.7.057-.7 5.355-6.725 17.36-11.246 25.383-14.986zM138.843 54.34c1.357 1.826 6.14 9.517 5.946 10.476-.89 4.402-1.605 7.906-3.48 10.15 0 0-6.736-8.783-10.172-16.53 2.456-1.77 7.705-4.096 7.705-4.096zM94.488 20.795c.124-.764.86-1.274 1.616-1.104 5.85 1.32 14.246 5.35 14.494 12.28.048 1.358-1.085 1.986-2.067 2.683-.08.058-.164.107-.257.146-1.45.612-3.26 1.207-4.89 1.748-.667.222-1.38-.116-1.654-.764-2.076-4.923-4.55-9.4-7.1-14.108-.142-.26-.194-.564-.146-.858l.004-.023zM119.17 16.514c5.266.707 12.525 3.07 8.695 8.922-.128.195-.303.36-.506.476-1.196.687-2.63 1.386-3.96 2.035-.716.35-1.58.065-1.96-.636-1.825-3.38-2.657-5.633-3.852-8.795-.397-1.05.468-2.15 1.582-2zM143.037 41.264c2.343-.878 3.948-1.256 6.465-1.728 1.837 3.403 3.175 4.957 4.26 8.807-1.53 1.6-3.066 3.735-5.395 5.158-1.413-3.51-4.078-8.518-5.33-12.236z" fill="#fff"/>
<path d="M90 5.243c46.735 0 84.757 38.022 84.757 84.757 0 46.735-38.022 84.757-84.757 84.757-46.735 0-84.757-38.022-84.757-84.757C5.243 43.265 43.265 5.243 90 5.243zM90 0C40.294 0 0 40.294 0 90s40.294 90 90 90 90-40.294 90-90S139.706 0 90 0z" fill="#fff"/>
<path d="M9.233 114.513c2.605-1.168 8.91-4.608 11.482-5.737 1.302-.572 2.815.016 3.398 1.314l9.596 21.337c.12.267.193.552.217.843l1.207 14.184c.195 2.293-6.607 9.28-6.443 3.844l-8.125-6.772c-.283-.236-.513-.53-.673-.862l-11.93-24.657c-.638-1.316-.062-2.896 1.27-3.494zM5.986 87.782c2.903 2.448 10.414 6.7 12.89 8.772 1.162.97 1.106 2.768-.11 3.668l-12.46 5.714c-1.194.884-2.898.444-3.516-.906l-1.05-2.3c-.157-.342-.228-.715-.21-1.09l.62-12.188c.097-1.93 2.358-2.915 3.836-1.67zM6.42 61.874l23.986-5.218c.865-.158 1.71.365 1.953 1.21l2.333 8.086c.253.876-.225 1.797-1.087 2.095l-27.67 9.636c-1.187.41-2.397-.554-2.262-1.803l1.35-12.504c.082-.755.65-1.366 1.397-1.502zM154.29 144.275l-18.395-7.887c-.752-.323-1.627-.11-2.148.522l-4.868 5.913c-.724.878-.486 2.196.5 2.765l16.71 9.665c.77.445 1.747.277 2.324-.4l6.553-7.69c.805-.944.465-2.4-.676-2.888zM102.498 172.835c4.77-6.2 14.573-19.017 17.55-22.908.492-.646 1.4-.798 2.08-.35L138.1 160.12c.94.623.927 2.008-.03 2.604-3.956 2.46-12.31 7.632-12.76 7.707-.438.074-14.122 3.216-21.245 4.853-1.414.326-2.453-1.298-1.57-2.448z" fill="#fff"/>
</svg>