<svg width="180" height="180" viewBox="0 0 180 180" fill="none" xmlns="http://www.w3.org/2000/svg">
<path d="M48.575 82.876c12.76 9.6 13.945 21.293 21.284 33.61 7.5-2.263 9.523-4.338 15.8-9.184-.653-1.997-1.183-3.81-2.086-5.714-5.166-11.52-9.89-21.34-14.508-33.174 3.92 1.74 5.757 3.15 9.106 5.71.913.695 4.57-.75 6.567.232-1.565 1.058-6.015 3.003-6.02 4.535-.017 7.38 7.636 22.065 12.178 27.228l17.296-6.716c-2.535-9.46-7.944-28.736-7.385-38.22l.675-.592c5.033 7.74 3.37 24.505 11.9 34.71 8.255-.534 9.578-2.02 16.26-6.922-2.062-11.312-5.643-48.818-19.734-49.496-6.638 1.553-10.306 4.15-16.348 6.606-14.702-4.753-11.985-4.656-22.196 6.81-1.213 1.363-9.993 3.963-10.938 5.006-5.745 6.35-6.773 10.228-15.897 12.727-2.417.664-3.877 7.187-4.615 9.216-1.466 4.484-2.835 9.438-4.214 13.997-.826 2.733-1.336 5.286.36 7.842 2.363 3.836 8.693 2.807 10.81 6.15 2.377 3.75 2.937 13.18 8.175 14.348 3.438.767 7.58-1.766 10.76-3.324-3.724-12.515-11.076-23.942-17.23-35.384z" fill="#fff"/>
<path d="M139.29 76.574c-.832-3.267-4.175-4.872-6.21-7.05-.655-.7-1.874-5.424-2.362-6.688-.64-1.657-.942-2.7-2.707-3.583-1.492 1.99 8.082 27.39 5.548 33.407-4.045 9.602-12.13 6.892-19.555 11.084-2.274 1.532-2.86 2-5.653 1.374l1.175-2.213-.338-.922c-4.032-1.435-11.41 4.362-14.103 7.316.142 1.925.35 6.11.773 7.77 2.39 4.477 4.858 10.595 9.717 12.15 7.577.282 10.958-3.92 16.89-8.488.497-.168 3.113-1.657 3.73-1.998 2.844-1.193 8.088-3.242 10.18-5.41.918-.95 1.047-3.01.814-4.262-.63-3.387 1.204-7.433 2.12-11.082 1.724-6.848 1.73-14.566-.017-21.406zM78.953 121.303c-3.905 1.578-14.127.496-16.074 3.307.417 1.323.318 1.31 1.32 2.24 3.492 2.044 8.896 3.2 12.93 4.768 5.04.56 6.047-1.212 9.282-4.705 2.62-3.386 7.65-8.2 3.624-11.993-2.683.503-7.825 5.067-11.084 6.383z" fill="#fff"/>
<path d="M90 5.243c46.735 0 84.757 38.022 84.757 84.757 0 46.735-38.022 84.757-84.757 84.757-46.735 0-84.757-38.022-84.757-84.757C5.243 43.265 43.265 5.243 90 5.243zM90 0C40.294 0 0 40.294 0 90s40.294 90 90 90 90-40.294 90-90S139.706 0 90 0z" fill="#fff"/>
</svg>