<svg xmlns="http://www.w3.org/2000/svg" width="180" height="180" fill="none" viewBox="0 0 180 180">
<path fill="#fff" d="M54.539 45.298h46.587c3.841 3.84 36.78 36.383 46.447 45.99-14.743 15.222-31.813 32.923-46.41 47.52-2.083.402-10.467.059-12.972.036-11.478-.104-22.322.207-33.781.207 2.04-2.375 4.171-4.654 6.326-6.925 13.37-13.37 25.613-27.106 39.014-40.506-10.682-11.63-22.021-22.89-32.823-34.228-3.948-4.143-7.811-7.558-12.388-12.094"/>
<path fill="#fff" d="M90 5.243c46.735 0 84.757 38.022 84.757 84.757S136.735 174.757 90 174.757 5.243 136.735 5.243 90 43.265 5.243 90 5.243M90 0C40.294 0 0 40.294 0 90s40.294 90 90 90 90-40.294 90-90S139.706 0 90 0"/>
</svg>