<svg xmlns="http://www.w3.org/2000/svg" width="180" height="180" fill="none" viewBox="0 0 180 180">
<path fill="#fff" d="M66.725 2.388a90.7 90.7 0 0 0-30.718 14.787c.832-.136 4.625-.767 5.061-.999 4.284-2.272 23.488-11.081 25.657-13.788M88.458 64.147c-.873.824-3.194 5.202-4.528 6.765-5.86 6.868-13.74 14.979-21.192 19.969 9.033 9.033 43.144 42.088 45.875 44.262 7.878-4.436 22.384-19.249 26.423-27.517-6.858-6.858-36.106-34.665-46.578-43.48M47.7 37.525c-2.3-.314-5.298-.835-7.14-.132-4.912 1.629-8.65 7.55-8.099 9.821 3.06 14.092 14.885 29.829 25.855 39.172 1.358-1.311 3.365-2.734 4.907-3.901 9.159-7.093 13.797-13.085 20.37-22.29-7.514-9.292-23.767-20.394-35.892-22.67M154.723 48.866c-1.607 0-3.792 18.944-4.335 21.954a1244 1244 0 0 1-6.902 35.113c-2.781 13.47-7.206 24.874-2.163 38.387.557 1.49 3.318.808 5.196-2.646a34.2 34.2 0 0 0 4.271-11.732c1.248-7.246 1.887-25.434 2.382-33.256.706-11.162 3.83-46.71 1.551-47.82M125.508 41.21c-.196-.76-1.32-.616-1.307.17.164 10.494 4.642 38.773 5.652 43.641.593 2.856 1.946 7.164 4.094 9.233 1.099 1.06 1.281-.113 1.281-.113 1.641-7.587-.8-17.82-2.778-26.037zM84.492 154.367c7.81.656 25.895 2.686 33.246 2.512a34.2 34.2 0 0 0 12.231-2.508c3.692-1.352 4.77-3.984 3.378-4.752-12.629-6.967-24.558-4.259-38.29-3.48a1240 1240 0 0 1-35.745 1.688c-3.057.097-22.117-.514-22.353 1.076.766 2.417 36.387 4.53 47.533 5.464M66.734 129.685c7.839 3.16 17.605 7.072 25.35 6.56 0 0 1.186-.009.3-1.251-1.733-2.427-5.796-4.397-8.534-5.402-4.669-1.711-31.988-10.279-42.345-11.978-.775-.128-1.083.963-.358 1.269z"/>
<path fill="#fff" d="M90 5.243C43.265 5.243 5.243 43.265 5.243 90S43.265 174.757 90 174.757 174.757 136.735 174.757 90 136.735 5.243 90 5.243M90 0c49.706 0 90 40.294 90 90s-40.294 90-90 90S0 139.706 0 90 40.294 0 90 0"/>
</svg>