<svg width="180" height="180" viewBox="0 0 180 180" fill="none" xmlns="http://www.w3.org/2000/svg">
<path d="M113.275 2.388c11.083 2.943 21.506 7.96 30.718 14.787-.832-.136-4.625-.767-5.06-1-4.285-2.27-23.49-11.08-25.658-13.787zM91.542 64.147c.873.824 3.194 5.202 4.528 6.765 5.86 6.868 13.74 14.98 21.192 19.97-9.033 9.032-43.144 42.087-45.875 44.26-7.878-4.435-22.384-19.248-26.423-27.516 6.858-6.858 36.106-34.665 46.578-43.48zM132.3 37.525c2.3-.314 5.298-.835 7.14-.132 4.912 1.63 8.65 7.55 8.1 9.82-3.06 14.093-14.886 29.83-25.856 39.173-1.358-1.31-3.365-2.734-4.907-3.9-9.16-7.094-13.797-13.086-20.37-22.29 7.514-9.293 23.767-20.395 35.892-22.67zM25.277 48.865c1.607 0 3.792 18.945 4.335 21.955 2.132 11.736 4.433 23.442 6.902 35.113 2.78 13.47 7.206 24.874 2.163 38.387-.556 1.49-3.318.808-5.196-2.646-2.13-3.616-3.578-7.593-4.27-11.732-1.248-7.246-1.887-25.434-2.382-33.256-.706-11.162-3.83-46.71-1.55-47.82zM54.492 41.21c.196-.76 1.32-.616 1.307.17-.165 10.494-4.643 38.773-5.653 43.64-.593 2.857-1.946 7.165-4.094 9.234-1.1 1.06-1.28-.113-1.28-.113-1.642-7.586.798-17.82 2.777-26.036l6.942-26.893zM95.508 154.367c-7.81.656-25.895 2.686-33.246 2.512-4.196-.08-8.342-.93-12.23-2.51-3.693-1.35-4.77-3.983-3.38-4.75 12.63-6.968 24.56-4.26 38.29-3.48 11.908.734 23.824 1.296 35.746 1.687 3.058.097 22.118-.514 22.353 1.076-.765 2.417-36.386 4.53-47.532 5.464zM113.266 129.685c-7.84 3.16-17.605 7.072-25.35 6.56 0 0-1.186-.01-.3-1.25 1.733-2.428 5.796-4.398 8.534-5.403 4.67-1.71 31.988-10.28 42.345-11.978.775-.128 1.083.963.358 1.27l-25.587 10.8z" fill="#fff"/>
<path d="M90 5.243c46.735 0 84.757 38.022 84.757 84.757 0 46.735-38.022 84.757-84.757 84.757-46.735 0-84.757-38.022-84.757-84.757C5.243 43.265 43.265 5.243 90 5.243zM90 0C40.294 0 0 40.294 0 90s40.294 90 90 90 90-40.294 90-90S139.706 0 90 0z" fill="#fff"/>
</svg>