<svg xmlns="http://www.w3.org/2000/svg" width="180" height="180" fill="none" viewBox="0 0 180 180">
<path fill="#fff" d="M99.743 65.357A339 339 0 0 0 90 57.977c5.186-6.85 10.146-13.086 15.287-19.41-2.753-3.266-5.108-5.825-8.002-9.567 5.859.177 24.25 0 24.25 0 1.241 9.962 2.455 16.65 3.683 26.03-3.439-3.277-6.421-5.84-10.381-8.586-5.913 6.906-9.656 11.38-15.094 18.913"/>
<path fill="#fff" d="M90 5.243c46.735 0 84.757 38.022 84.757 84.757S136.735 174.757 90 174.757 5.243 136.735 5.243 90 43.265 5.243 90 5.243M90 0C40.294 0 0 40.294 0 90s40.294 90 90 90 90-40.294 90-90S139.706 0 90 0"/>
<path fill="#fff" d="M46.75 91.5c2.566 0 5.334.625 7.682 1.688l2.85-4.252a27.2 27.2 0 0 0-13.657-3.686 3.123 3.123 0 0 1-3.125-3.125v-6.25C40.5 63.815 50.314 54 62.375 54h6.25a3.123 3.123 0 0 1 3.125 3.125 3.123 3.123 0 0 1-3.125 3.125H65.5v6.25h9.375c1.044 0 2.02.522 2.6 1.392l3.24 4.858h39.239l1.568-2.353a8.74 8.74 0 0 1 7.279-3.897h15.741a3.123 3.123 0 0 1 3.125 3.125c0 8.03-6.089 14.664-13.889 15.53l-4.27 6.405c10.06.32 18.159 8.553 18.159 18.69 0 10.339-8.411 18.75-18.75 18.75-7.997 0-15.017-5.135-17.633-12.5H79.486c-4.156 0-7.766-2.96-8.578-7.034l-.443-2.213c-1.15-5.752-4.142-10.725-8.204-14.524l-2.648 3.948c3.792 3.594 5.887 8.563 5.887 13.573 0 10.089-8.482 18.75-18.75 18.75C36.41 129 28 120.589 28 110.25S36.41 91.5 46.75 91.5m82.167 24.979h-10.803c2.191 3.765 6.262 6.271 10.803 6.271 6.894 0 12.5-5.606 12.5-12.5s-5.606-12.5-12.5-12.5c-1.389 0-2.726.275-4.014.715l-1.092 1.638a8.72 8.72 0 0 1-7.278 3.897h12.384a6.25 6.25 0 0 1 6.25 6.25c0 3.452-2.798 6.229-6.25 6.229M46.75 122.75c6.771 0 12.5-5.687 12.5-12.5 0-2.889-1.012-5.77-3.208-8.249l-6.698 9.989a3.12 3.12 0 0 1-4.333.854 3.12 3.12 0 0 1-.855-4.333l6.7-9.991c-1.508-.528-2.515-.77-4.106-.77-6.894 0-12.5 5.606-12.5 12.5s5.606 12.5 12.5 12.5"/>
</svg>