<svg width="180" height="180" viewBox="0 0 180 180" fill="none" xmlns="http://www.w3.org/2000/svg">
<path d="M89.92 35.257c7.15 4.17 14.316 11.67 21.7 16.093 0-2.394-.037-6.33-.037-6.33s11.583-.057 21.54.317c-.036 5.173-.58 18.903-.58 22.408 4.25 4.548 17.08 16.882 17.08 16.882h-16.528c0 13.736.122 36.083 0 50.867h-30.498c0-8.17.037-16.686 0-24.836 0 0-15.468.115-20.28 0v24.836c-10.658-.238-21.725.052-32.42 0V85.487c-3.06 0-14.692-.42-18.733-.07 4.647-6.776 12.095-11.7 18.3-17.094C62.06 57.37 77.866 46.476 89.918 35.257z" fill="#fff"/>
<path d="M90 5.243c46.735 0 84.757 38.022 84.757 84.757 0 46.735-38.022 84.757-84.757 84.757-46.735 0-84.757-38.022-84.757-84.757C5.243 43.265 43.265 5.243 90 5.243zM90 0C40.294 0 0 40.294 0 90s40.294 90 90 90 90-40.294 90-90S139.706 0 90 0z" fill="#fff"/>
</svg>