<svg width="180" height="180" viewBox="0 0 180 180" fill="none" xmlns="http://www.w3.org/2000/svg">
<path d="M90 5.243c46.735 0 84.757 38.022 84.757 84.757 0 46.735-38.022 84.757-84.757 84.757-46.735 0-84.757-38.022-84.757-84.757C5.243 43.265 43.265 5.243 90 5.243zM90 0C40.294 0 0 40.294 0 90s40.294 90 90 90 90-40.294 90-90S139.706 0 90 0z" fill="#fff"/>
<path d="M150.61 55.75c-3.294.562-10.056 14.44-18.115 18.47-14.23 7.11-33.75 4.134-49.36 4.746-11.985.468-24.48.077-36.367-.507-4.03-.2-12.315-3.44-16.54-4.665 0 5.98-.29 15.515-.29 21.525 6.753-1.41 10.284-4.51 19.012-5.71-2.487 13.625-6.334 24.215 9.3 32.604 1.48.804 5.694 1.71 7.578 1.91 15.87 1.692 35.367 2.61 48.896-1.455 12.814-3.85 14.838-21.134 10.252-31.645 0 0 .62-.235.84-.235 10.992 0 17.692 19.47 23.22 20.232 7.792-.898 6.015-57.966 1.574-55.27zM116.143 102.1c0 7.063-5.726 12.79-12.79 12.79H69.25c-7.064 0-12.79-5.727-12.79-12.79 0-7.063 5.726-12.788 12.79-12.788h34.104c7.063 0 12.79 5.725 12.79 12.788z" fill="#fff"/>
</svg>