<svg xmlns="http://www.w3.org/2000/svg" width="180" height="180" fill="none" viewBox="0 0 180 180">
<path fill="#fff" d="M90 5.243c46.735 0 84.757 38.022 84.757 84.757S136.735 174.757 90 174.757 5.243 136.735 5.243 90 43.265 5.243 90 5.243M90 0C40.294 0 0 40.294 0 90s40.294 90 90 90 90-40.294 90-90S139.706 0 90 0"/>
<path fill="#fff" d="M132.677 92.029v-8.324q2.775 0 4.336-1.907 1.647-1.908 1.647-5.376h14.393q0 4.422-2.688 7.977-2.687 3.555-7.283 5.636-4.596 1.995-10.405 1.994m-4.248 28.699v-10.925h5.202v10.925zm0-26.965V83.705h5.116v10.058zm11.098 8.844v-1.648h14.393v1.648zm0-1.561q0-3.468-1.647-5.376-1.561-1.907-4.335-1.907v-8.324q5.809 0 10.404 2.081 4.595 1.995 7.283 5.55 2.688 3.467 2.688 7.976zm-11.098-31.82V58.3h4.335v10.924zm24.624 7.283H138.66q0-3.468-1.647-5.376-1.561-1.908-4.336-1.908V58.301q5.81 0 10.405 2.427 4.595 2.342 7.283 6.503 2.688 4.076 2.688 9.278m.867 26.011q0 5.203-2.688 9.364-2.688 4.076-7.283 6.503-4.595 2.341-10.404 2.341v-10.925q2.773 0 4.335-1.907 1.647-1.908 1.647-5.376zm-39.017 18.208V58.301h14.393v62.427zM90.528 103.907V75.035h14.393v28.872zm-26.185 0V75.035h14.393v28.872zm40.578-28.699H90.528q0-3.468-1.647-5.376-1.56-1.907-4.336-1.907V57q5.81 0 10.405 2.428 4.596 2.34 7.283 6.503 2.688 4.075 2.688 9.277m-40.578 0q0-5.202 2.688-9.277 2.688-4.163 7.283-6.503Q78.91 57 84.72 57v10.925q-2.775 0-4.422 1.907-1.56 1.908-1.56 5.376zm40.578 28.613q0 5.202-2.688 9.364-2.688 4.075-7.283 6.503-4.596 2.34-10.405 2.341v-10.925q2.775 0 4.336-1.908 1.647-1.907 1.647-5.375zm-40.578 0h14.393q0 3.468 1.56 5.375 1.649 1.908 4.423 1.908v10.925q-5.81 0-10.405-2.341-4.595-2.428-7.283-6.503-2.688-4.162-2.688-9.364M39.96 103.994V58.301h14.392v45.693zm14.392-.087q0 8.585-4.682 13.44-4.68 4.768-13.092 4.768l-1.734-10.924q1.647 0 2.774-.867 1.128-.868 1.734-2.515.608-1.647.608-3.902zm-23.323 5.81a6.9 6.9 0 0 0 1.734 1.127q.955.347 2.08.347l1.735 10.924q-2.775 0-5.376-.78-2.514-.78-5.202-2.688z"/>
</svg>