<svg xmlns="http://www.w3.org/2000/svg" width="180" height="180" fill="none" viewBox="0 0 180 180">
<path fill="#fff" d="M121.787 67.372c-10.171-5.855-16.174-11.504-22.205-20.367-.048-.072-.055-.17-.07-.255-1.01-5.835 3.645-9.23 2.079-13.779-1.554-4.515-4.935-5.477-10.671-4.799-7.724.913-5.02 8.573-4.922 14.326.025 1.505-.323 2.963-.45 3.438a1.3 1.3 0 0 1-.119.296C79.084 57.48 60.617 57.572 56.24 64.396c-2.187 3.463.742 12.197 2.047 14.916.032.066.029.132.054.2 1.92 5.165 8.862 10.678 11.644 13.166.33.295.798.373 1.204.196 2.781-1.215 4.48-5.286 8.165-5.456.276-.013.558.089.761.275 4.97 4.54-4.437 14.808-7.902 19.622-.351.487-1.02.627-1.527.306-8.18-5.175-11.68-9.811-20.629-15.887a1.15 1.15 0 0 0-1.314.014c-6.648 4.845-11.96 11.785-14.164 19.877l.399.634c3.857.447 8.46-2.464 12.36-4.032.31-.125.662-.097.958.061 9.43 5.019 13.74 9.035 20.47 16.301.125.136.287.25.461.312 8.366 3.013 17.284-9.892 21.315-13.667 6.534-8.944 12.715 1.198 12.788 1.345 3.874 7.735-.928 20.056-.108 27.144a1.1 1.1 0 0 0 .72.896c4.581 1.728 18.64 8.512 22.398 5.977.456-.308.604-.904.388-1.41-1.446-3.37-6.348-6.845-9.537-9.005a1.14 1.14 0 0 1-.435-1.287c3.001-9.439 2.904-12.684 4.45-22.979.279-5.517-10.63-15.458-13.864-28.936-1.604-6.68-2.447-5.915-2.329-12.724.013-.77.776-1.314 1.501-1.056 7.693 2.74 20.539 12.082 23.994 6.753 1.901-2.827-1.959-4.487-8.721-8.58M75.734 80.146c-11.991-3.257-9.08-14.113-1.609-15.495 6.445 0 2.467 10.513 1.609 15.495"/>
<path fill="#fff" d="M90 5.243c46.735 0 84.757 38.022 84.757 84.757S136.735 174.757 90 174.757 5.243 136.735 5.243 90 43.265 5.243 90 5.243M90 0C40.294 0 0 40.294 0 90s40.294 90 90 90 90-40.294 90-90S139.706 0 90 0"/>
</svg>