<svg xmlns="http://www.w3.org/2000/svg" width="180" height="180" fill="none" viewBox="0 0 180 180">
<path fill="#fff" d="M90 5.243c46.735 0 84.757 38.022 84.757 84.757S136.735 174.757 90 174.757 5.243 136.735 5.243 90 43.265 5.243 90 5.243M90 0C40.294 0 0 40.294 0 90s40.294 90 90 90 90-40.294 90-90S139.706 0 90 0"/>
<path fill="#fff" d="m54.761 74.215 45.326 77.923a1 1 0 0 0 1.365.362l32.843-19.002c.41-.237.591-.729.375-1.151-.523-1.023-1.641-2.823-3.641-5.229-2.647-3.186-7.72-5.752-9.926-6.637l-20.515-34.51 3.046-9.774a2 2 0 0 0-.184-1.607L91.163 53.643a1 1 0 0 0-1.36-.361L73.447 62.67a3 3 0 0 1-2.916.04l-2.978-1.605a9 9 0 0 1-3.31-3.068L49.61 35.206c-.411-.642-1.051-1.126-1.812-1.188-.524-.042-1.107-.023-1.475.188-.27.154-.507.427-.703.722-.496.747-.346 1.71.128 2.471l14.433 23.159a9 9 0 0 1 1.362 4.76V67.3a3 3 0 0 1-1.458 2.574l-4.974 2.98a1 1 0 0 0-.351 1.36"/>
</svg>