<svg width="180" height="180" viewBox="0 0 180 180" fill="none" xmlns="http://www.w3.org/2000/svg">
<path d="M130.653 110.546c-.205-22.184.412-44.5-.35-66.68-.11-3.174-2.71-5.692-5.885-5.737-15.644-.22-53.415-.515-53.53-.504-.915.086-3.722 0-4.734 2.458-2.344 6.024 1.557 18.59-.31 25.085-1.58 5.497-6.287 10.43-9.786 14.817-3.567 4.474-7.68 9.03-9.642 14.49-1.616 4.5-1.678 21.996-1.31 35.028.216 7.58 6.324 13.672 13.903 13.868 14.88.387 31.588-.018 45.203.086 4.19-.017 8.38-.15 12.568-.3 7.59-.273 13.65-6.402 13.82-13.993.14-6.174.11-12.334.053-18.62zm-60.76 17.423c0 2.21-1.793 4.002-4.004 4.002H61.42c-2.21 0-4.003-1.793-4.003-4.003v-4.47c0-2.21 1.79-4.002 4.002-4.002h4.467c2.21 0 4.002 1.792 4.002 4.003v4.47zm0-24.503c0 2.21-1.793 4.003-4.004 4.003H61.42c-2.21 0-4.003-1.792-4.003-4.003V99c0-2.21 1.79-4.003 4.002-4.003h4.467c2.21 0 4.002 1.792 4.002 4.003v4.467zm23.48 24.502c0 2.21-1.79 4.002-4.002 4.002h-4.466c-2.21 0-4.003-1.793-4.003-4.003v-4.47c0-2.21 1.793-4.002 4.004-4.002h4.467c2.212 0 4.004 1.792 4.004 4.003v4.47zm0-24.503c0 2.21-1.79 4.003-4.002 4.003h-4.466c-2.21 0-4.003-1.792-4.003-4.003V99c0-2.21 1.793-4.003 4.004-4.003h4.467c2.212 0 4.004 1.792 4.004 4.003v4.467zm0-23.713c0 2.21-1.79 4.003-4.002 4.003h-4.466c-2.21 0-4.003-1.793-4.003-4.003v-4.468c0-2.21 1.793-4.003 4.004-4.003h4.467c2.212 0 4.004 1.793 4.004 4.003v4.468zm0-24.33c0 2.212-1.79 4.004-4.002 4.004h-4.466c-2.21 0-4.003-1.792-4.003-4.003v-4.467c0-2.21 1.793-4.003 4.004-4.003h4.467c2.212 0 4.004 1.792 4.004 4.003v4.467zm24.48 72.545c0 2.21-1.792 4.002-4.003 4.002h-4.467c-2.21 0-4.003-1.793-4.003-4.003v-4.47c0-2.21 1.792-4.002 4.003-4.002h4.467c2.21 0 4.003 1.792 4.003 4.003v4.47zm0-24.503c0 2.21-1.792 4.003-4.003 4.003h-4.467c-2.21 0-4.003-1.792-4.003-4.003V99c0-2.21 1.792-4.003 4.003-4.003h4.467c2.21 0 4.003 1.792 4.003 4.003v4.467zm0-23.713c0 2.21-1.792 4.003-4.003 4.003h-4.467c-2.21 0-4.003-1.793-4.003-4.003v-4.468c0-2.21 1.792-4.003 4.003-4.003h4.467c2.21 0 4.003 1.793 4.003 4.003v4.468zm0-24.33c0 2.212-1.792 4.004-4.003 4.004h-4.467c-2.21 0-4.003-1.792-4.003-4.003v-4.467c0-2.21 1.792-4.003 4.003-4.003h4.467c2.21 0 4.003 1.792 4.003 4.003v4.467z" fill="#fff"/>
<path d="M90 5.243c46.735 0 84.757 38.022 84.757 84.757 0 46.735-38.022 84.757-84.757 84.757-46.735 0-84.757-38.022-84.757-84.757C5.243 43.265 43.265 5.243 90 5.243zM90 0C40.294 0 0 40.294 0 90s40.294 90 90 90 90-40.294 90-90S139.706 0 90 0z" fill="#fff"/>
</svg>