<svg width="180" height="180" viewBox="0 0 180 180" fill="#fff" xmlns="http://www.w3.org/2000/svg">
<path d="M90 5.243c46.735 0 84.757 38.022 84.757 84.757 0 46.735-38.022 84.757-84.757 84.757-46.735 0-84.757-38.022-84.757-84.757C5.243 43.265 43.265 5.243 90 5.243zM90 0C40.294 0 0 40.294 0 90s40.294 90 90 90 90-40.294 90-90S139.706 0 90 0z" fill="#fff"/>
<path d="M76.024 51.614c7.215 4.49 16.193 20.678 21.925 25.955.753.693 1.82.92 2.793.598 4.258-1.4 14.066-5.376 15.932-2.672 3.824 5.225-9.416 11.092-18.357 13.963-2.217.71-4.65-.083-5.995-1.983-4.255-6.007-6.493-9.236-13.173-1.233-1.04 1.245-1.078 3.058-.07 4.327 2.815 3.543 6.912 7.27 10.335 10.875 1.484 1.562 1.625 3.955.347 5.69-4.775 6.48-14.643 17.82-19.528 22.582-.785.765-1.995.882-2.923.298l-3.353-2.115c-.973-.613-1.303-1.862-.785-2.888 2.79-5.523 8.93-12.284 13.5-17.32 1.277-1.407 1.42-3.497.373-5.082-1.985-3.006-3.752-4.64-6.992-6.593-.932-.56-2.13.09-2.152 1.178-.04 2.046-.125 4.604-.316 5.29-1.868 6.725-15.158 21.157-21.865 26.69-1.05.863-2.572.78-3.535-.177-.83-.827-1.43-1.534-2.252-2.584-.524-.67-.617-1.602-.202-2.345 4.63-8.278 11.298-13.945 16.69-21.242 1.184-1.605 1.62-3.644 1.243-5.603-.452-2.352-.806-4.846-.527-7.065 1.326-10.563 15.577-15.607 19.085-24.758.4-1.04-.364-1.807-.948-2.466-5.822-1.887-14.778 11.32-20.57 13.428-7.605-.868-4.03-6.424-.457-9.81 5.583-5.294 12.335-9.72 18.13-14.666 1.025-.873 2.506-.985 3.65-.274zM127.852 75.447c7.623 4.59 14.306 8.234 22.266 12.245-2.71 5.632-8.265 18.778-10.903 23.54-.713-2.753-1.568-5.598-3.717-10.243-.474-1.026-1.652-1.532-2.72-1.16-5.48 1.905-19.053 7.29-21.364 8.08-1.382-4.795-1.906-7.06-3.23-12.205 4.755-2.007 14.343-5.325 19.907-7.736 1.224-.53 1.907-1.84 1.663-3.15-.655-3.532-1.9-9.373-1.9-9.373z" fill="#fff"/>
<path d="M100.143 66.36c5.355 0 9.696-4.34 9.696-9.695s-4.342-9.697-9.697-9.697c-5.355 0-9.697 4.342-9.697 9.697 0 5.355 4.342 9.696 9.697 9.696z" fill="#fff"/>
</svg>